<?xml version="1.0" encoding="UTF-8" standalone="no"?>
<!-- Created with Inkscape (http://www.inkscape.org/) -->

<svg
   xmlns:dc="http://purl.org/dc/elements/1.1/"
   xmlns:cc="http://creativecommons.org/ns#"
   xmlns:rdf="http://www.w3.org/1999/02/22-rdf-syntax-ns#"
   xmlns:svg="http://www.w3.org/2000/svg"
   xmlns="http://www.w3.org/2000/svg"
   xmlns:sodipodi="http://sodipodi.sourceforge.net/DTD/sodipodi-0.dtd"
   xmlns:inkscape="http://www.inkscape.org/namespaces/inkscape"
   width="554.74432"
   height="251.864"
   id="svg2"
   version="1.1"
   inkscape:version="0.48.4 r9939"
   inkscape:export-filename="/home/eduardojr/gitc3sl/ce064/appComPoisson/www/gitlabc3sl.png"
   inkscape:export-xdpi="46.707489"
   inkscape:export-ydpi="46.707489"
   sodipodi:docname="Novo documento 1">
  <defs
     id="defs4" />
  <sodipodi:namedview
     id="base"
     pagecolor="#ffffff"
     bordercolor="#666666"
     borderopacity="1.0"
     inkscape:pageopacity="0.0"
     inkscape:pageshadow="2"
     inkscape:zoom="0.98994949"
     inkscape:cx="408.8648"
     inkscape:cy="90.055441"
     inkscape:document-units="px"
     inkscape:current-layer="layer1"
     showgrid="false"
     fit-margin-top="0.5"
     fit-margin-left="0.5"
     fit-margin-right="0.5"
     fit-margin-bottom="0.5"
     units="cm"
     inkscape:window-width="1366"
     inkscape:window-height="744"
     inkscape:window-x="0"
     inkscape:window-y="110"
     inkscape:window-maximized="1" />
  <metadata
     id="metadata7">
    <rdf:RDF>
      <cc:Work
         rdf:about="">
        <dc:format>image/svg+xml</dc:format>
        <dc:type
           rdf:resource="http://purl.org/dc/dcmitype/StillImage" />
        <dc:title></dc:title>
      </cc:Work>
    </rdf:RDF>
  </metadata>
  <g
     inkscape:label="Camada 1"
     inkscape:groupmode="layer"
     id="layer1"
     transform="translate(-27.752135,-397.49299)">
    <g
       id="g3130"
       transform="translate(-282.84271,-121.21831)">
      <path
         style="fill:#f99e25"
         d="m 725.15651,750.14623 c -2.13113,-1.51239 -7.15669,-5.1774 -11.1679,-8.14447 -7.82439,-5.78765 -17.70546,-12.9795 -19.71733,-14.3511 -0.67889,-0.46283 -5.48233,-3.93269 -10.67431,-7.71079 -24.44934,-17.79135 -28.32157,-20.60264 -33.56332,-24.36747 -3.08555,-2.21617 -8.76576,-6.33952 -12.62269,-9.16302 -3.85693,-2.8235 -10.62751,-7.7449 -15.04573,-10.93643 -9.85315,-7.1175 -11.42252,-9.53884 -9.66982,-14.91934 0.2914,-0.89456 3.33079,-10.33614 6.7542,-20.98127 9.2021,-28.61412 9.37981,-29.16379 17.68355,-54.69833 13.78856,-42.40074 14.95588,-45.81405 16.03802,-46.89619 1.40083,-1.40083 4.65663,-1.4105 6.04916,-0.018 1.08062,1.08062 3.05674,6.84963 15.78182,46.07265 10.17107,31.35071 11.18416,34.40249 11.68753,35.20679 0.34909,0.55779 9.43276,0.67479 43.55673,0.56101 l 43.11566,-0.14376 2.11525,-6.4516 c 1.16339,-3.54838 5.68137,-17.43334 10.03994,-30.85547 12.97503,-39.95628 14.11804,-43.29055 15.21704,-44.38955 1.38794,-1.38795 4.64819,-1.38313 6.04024,0.009 1.065,1.065 3.68846,8.74868 16.30227,47.74668 3.74255,11.5708 7.27722,22.42632 7.85482,24.12337 0.5776,1.69705 2.488,7.62971 4.24532,13.1837 1.75733,5.55398 5.19696,16.15704 7.64363,23.56235 5.20576,15.75616 5.5676,17.66423 3.95085,20.83333 -1.05904,2.07588 -7.09,6.89234 -19.22276,15.35172 -1.10636,0.77138 -7.41857,5.34151 -14.02715,10.15582 -6.60858,4.81432 -19.96789,14.51357 -29.68736,21.55387 -15.12951,10.95909 -38.24425,27.84299 -49.27788,35.99448 -1.74703,1.29068 -3.70484,2.36361 -4.3507,2.38429 -0.64586,0.0207 -2.91794,-1.19982 -5.04908,-2.71222 z"
         id="path3122"
         inkscape:connector-curvature="0" />
      <path
         style="fill:#f96b23"
         d="m 725.26527,747.14571 c -2.02904,-2.54558 -6.85896,-8.66758 -10.73315,-13.60446 -8.06161,-10.2729 -15.46212,-19.67924 -19.64129,-24.96487 -1.58576,-2.00561 -4.62751,-5.92421 -6.75944,-8.70801 -2.13192,-2.78379 -5.20204,-6.69682 -6.82248,-8.69563 -1.62044,-1.9988 -7.0482,-8.93961 -12.06168,-15.42403 -5.01349,-6.48441 -10.25147,-13.20683 -11.63997,-14.9387 -1.38849,-1.73188 -3.53435,-4.47236 -4.76857,-6.08996 -1.23422,-1.6176 -4.06533,-5.24579 -6.29135,-8.06264 -2.22603,-2.81685 -4.52521,-5.75268 -5.1093,-6.52407 -0.58408,-0.77138 -3.98758,-5.11736 -7.56333,-9.65771 -3.57575,-4.54036 -6.7782,-8.77247 -7.11656,-9.4047 -0.50682,-0.94701 0.73143,-5.27417 7.0291,-24.5638 4.20436,-12.87786 10.05699,-30.80957 13.00585,-39.84824 2.94885,-9.03866 5.84935,-17.05407 6.44555,-17.81201 2.33396,-2.96715 6.24403,-1.29125 7.665,3.28529 0.30538,0.98352 4.21805,13.02242 8.69483,26.7531 4.47678,13.73068 9.90333,30.43837 12.059,37.1282 2.15567,6.68983 4.19892,12.6856 4.54055,13.32395 0.61982,1.15815 0.7138,1.16063 44.04176,1.16063 l 43.42061,0 0.36161,-1.26227 c 0.19887,-0.69425 2.4686,-7.69984 5.04382,-15.56799 2.57522,-7.86814 7.74915,-23.77273 11.49763,-35.34353 8.46918,-26.14265 9.3163,-28.55645 10.46868,-29.82982 1.31032,-1.44789 4.21423,-1.32579 5.62776,0.23663 0.66454,0.73453 3.30459,7.94684 6.3147,17.25101 4.06726,12.5718 13.9514,43.01435 19.94054,61.41568 0.93433,2.87071 0.52612,3.89443 -3.55152,8.9065 -3.2846,4.03729 -5.04009,6.28673 -12.54373,16.07312 -2.24753,2.93127 -6.0448,7.7691 -8.43839,10.75074 -2.39359,2.98165 -5.42469,6.8079 -6.73579,8.5028 -9.06974,11.72477 -14.92406,19.31774 -16.12852,20.91847 -0.77138,1.02518 -4.05328,5.19607 -7.29311,9.26863 -5.9712,7.506 -9.57357,12.07071 -12.62269,15.99472 -0.92566,1.19126 -3.57643,4.58005 -5.89059,7.53062 -2.31416,2.95057 -6.10096,7.83943 -8.41512,10.86413 -2.31416,3.0247 -6.15877,7.9318 -8.54357,10.90467 -2.3848,2.97287 -5.34667,6.6675 -6.58193,8.21027 -1.23525,1.54277 -2.90396,3.62552 -3.70824,4.62832 -0.80427,1.0028 -1.92248,1.82328 -2.48491,1.82328 -0.60872,0 -2.51575,-1.87326 -4.71176,-4.62832 z"
         id="path3120"
         inkscape:connector-curvature="0" />
      <path
         style="fill:#e04226"
         d="m 728.10146,747.14571 c -1.27112,-3.61865 -5.33194,-15.99514 -16.06019,-48.94799 -8.28349,-25.44355 -18.2371,-55.97386 -19.66197,-60.30841 -2.77014,-8.42695 -5.03859,-15.76844 -5.03859,-16.30664 0,-0.31955 16.61614,-0.52361 42.63664,-0.52361 31.52869,0 42.63665,0.16653 42.63665,0.63923 0,0.35157 -0.75161,2.93923 -1.67024,5.75033 -0.91863,2.81111 -3.97458,12.17982 -6.79099,20.81935 -2.81642,8.63953 -7.47383,22.90317 -10.34981,31.69697 -6.14592,18.79226 -17.49388,53.77143 -19.65628,60.58892 -2.26582,7.14356 -3.63547,10.65916 -4.15271,10.65916 -0.25509,0 -1.10672,-1.83029 -1.89251,-4.06731 z m -100.69955,-127.138 c -0.60056,-0.38362 -0.0521,-2.61889 2.71743,-11.07506 5.49815,-16.78741 11.27776,-34.50635 17.119,-52.48284 2.97437,-9.15366 5.7037,-17.03944 6.06516,-17.52395 1.09638,-1.46961 4.0156,-1.74523 5.26384,-0.49698 0.61852,0.61852 3.04969,7.1509 5.71131,15.34591 2.54888,7.84793 8.41888,25.84383 13.04442,39.99087 4.62554,14.14706 8.246,25.88616 8.04547,26.0869 -0.5542,0.55476 -57.10409,0.70612 -57.96663,0.15515 z m 147.14898,-0.11378 c -0.20536,-0.33227 0.0146,-1.65765 0.48872,-2.9453 0.80362,-2.18239 13.0393,-39.65335 20.64064,-63.21059 4.74172,-14.69503 4.82355,-14.89394 6.42763,-15.62481 0.7779,-0.35444 1.73358,-0.64443 2.12371,-0.64443 1.17765,0 3.077,2.1218 3.63761,4.06366 0.29009,1.00481 6.11882,18.93865 12.95273,39.85298 6.8339,20.91432 12.27419,38.27052 12.08952,38.56933 -0.49022,0.7932 -57.8697,0.73339 -58.36056,-0.0608 z"
         id="path3118"
         inkscape:connector-curvature="0" />
    </g>
    <g
       id="g3149"
       transform="translate(-428.30468,72.730983)">
      <path
         style="fill:#a8c821"
         d="m 667.33452,551.61189 c -43.55759,-3.6115 -80.50194,-6.5625 -119.84883,-9.57313 -18.95839,-1.45059 -37.28656,-3.10054 -40.72927,-3.66653 -13.49977,-2.21944 -25.21874,-10.22701 -30.41331,-20.78142 l -2.56976,-5.22128 0,-49.84863 0,-49.84863 2.84856,-5.39852 c 4.16901,-7.901 12.28233,-14.47453 22.19214,-17.9804 2.561,-0.90603 20.64504,-5.23592 40.18676,-9.62198 19.54173,-4.38606 48.17817,-10.83228 63.63655,-14.32492 94.29457,-21.30478 104.44264,-23.42113 109.19176,-22.77167 10.41771,1.42467 20.44889,9.21038 25.40555,19.71855 l 2.75157,5.83335 0,80.6063 0,80.60629 -2.80685,5.30305 c -3.71241,7.01394 -9.33963,12.65077 -16.08532,16.1128 -7.50073,3.84953 -16.02583,3.98539 -53.75955,0.85677 z m -79.15796,-52.45092 c 11.81611,-4.06534 19.42454,-12.17926 21.29861,-22.71368 1.3274,-7.46143 -0.23472,-12.20929 -6.0348,-18.34203 l -5.30753,-5.61192 3.26055,-3.71357 c 13.28227,-15.12767 -6.66373,-37.00333 -25.80156,-28.29772 -5.04109,2.29314 -7.36521,4.8112 -6.50637,7.0493 1.07451,2.80013 3.85609,3.01634 8.56299,0.66561 5.86377,-2.92852 8.58266,-2.86061 11.73638,0.2931 7.21698,7.21699 3.30249,19.11518 -6.73166,20.46104 -7.34822,0.98561 -6.29889,5.68744 1.6,7.16927 8.99552,1.68757 13.08115,6.58579 13.08115,15.68288 0,10.01411 -4.47537,17.2747 -13.18883,21.39682 -6.59612,3.12046 -7.67138,4.31035 -5.86358,6.4886 1.666,2.00741 2.68404,1.95312 9.89465,-0.5277 z"
         id="path3141"
         inkscape:connector-curvature="0" />
      <path
         style="fill:#778739"
         d="m 526.63384,500.83155 c -6.55225,-2.1378 -10.66469,-5.5116 -14.17166,-11.62624 l -3.13852,-5.47223 0,-24.92431 0,-24.92432 3.16575,-5.51989 c 5.30377,-9.24784 15.79084,-13.9925 26.26842,-11.88462 10.09139,2.03018 18.41397,10.69074 19.93711,20.74674 0.90297,5.96155 -0.14675,8.85478 -3.21268,8.85478 -2.76326,0 -3.75226,-1.7673 -3.7581,-6.71555 -0.0119,-10.05699 -11.63866,-16.4315 -21.11827,-11.57831 -6.77533,3.4687 -7.51421,6.49469 -7.51421,30.77354 0,24.16092 0.68499,27.39316 6.56498,30.97811 4.12801,2.51677 10.35828,2.77537 14.55685,0.60421 3.54839,-1.83495 6.454,-7.44315 6.454,-12.45705 0,-4.1662 1.57154,-6.15033 4.87139,-6.15033 6.24566,0 3.90155,14.70529 -3.60815,22.63507 -6.2865,6.63816 -16.84485,9.41806 -25.29691,6.6604 z m 114.05774,-27.31089 c -6.84095,-1.90572 -13.79884,-11.77204 -11.3667,-16.11803 1.61862,-2.89232 3.88954,-2.04522 6.09229,2.27255 2.60832,5.11273 3.94088,6.19408 8.73742,7.09033 6.5882,1.23103 11.44576,-2.59593 11.44576,-9.01735 0,-5.92264 -2.85741,-8.32926 -14.34464,-12.08167 -7.73972,-2.52825 -11.29088,-6.62282 -11.8078,-13.61464 -0.53713,-7.26513 2.16591,-11.81699 8.74565,-14.72752 9.34316,-4.13293 21.59272,1.35689 23.42059,10.49627 0.52746,2.63722 0.26979,3.53551 -1.17287,4.08912 -1.32259,0.50752 -2.79334,-0.39991 -5.1672,-3.1881 -6.79271,-7.97826 -18.69723,-6.90554 -18.69723,1.68481 0,5.18257 1.67101,6.73864 11.02936,10.27071 11.85183,4.47318 15.48587,8.3266 15.48587,16.42077 0,12.06126 -10.47892,19.7438 -22.4005,16.42275 z m 31.94598,-0.92397 c -2.00243,-2.00243 -2.12121,-3.53536 -2.12121,-27.37313 0,-26.67493 0.47931,-29.51312 4.84284,-28.67662 1.93338,0.37063 2.08155,1.72211 2.58142,23.54455 0.649,28.33303 0.006,27.20215 15.45901,27.20215 8.71654,0 10.05402,0.24859 11.01679,2.04756 0.82718,1.54559 0.68775,2.45565 -0.56874,3.71213 -1.34068,1.34068 -4.33262,1.66457 -15.37673,1.66457 -12.29802,0 -13.93092,-0.21876 -15.83338,-2.12121 z"
         id="path3139"
         inkscape:connector-curvature="0" />
      <path
         style="fill:#565a4b"
         d="m 522.96401,497.20895 c -4.13017,-2.15763 -6.54269,-4.37037 -8.87114,-8.13655 l -3.1982,-5.17297 0,-25.00749 c 0,-27.28032 0.1367,-28.00172 6.53033,-34.46166 11.21224,-11.32853 30.48017,-8.1976 37.38972,6.07562 2.3144,4.78092 3.06721,14.51495 1.12255,14.51495 -1.17872,0 -1.19147,-0.0335 -3.02789,-7.95457 -3.29949,-14.23179 -21.26874,-17.36957 -28.92745,-5.05131 -2.40047,3.86091 -2.48117,4.73233 -2.48117,26.7938 0,19.64218 0.25507,23.26932 1.84007,26.16645 3.94298,7.20718 12.13677,10.22619 19.62392,7.23042 5.35643,-2.14322 7.78189,-5.58373 9.33753,-13.2453 1.3852,-6.8222 3.98924,-8.03583 4.55141,-2.12122 1.62179,17.06282 -17.8344,28.7572 -33.88968,20.36983 z m 115.7552,-26.46997 c -3.98975,-2.00453 -8.50601,-7.85901 -8.50601,-11.02645 0,-3.06197 2.78205,-2.30823 4.21067,1.14078 1.85348,4.47468 4.57215,6.53988 9.47491,7.19748 5.76019,0.77261 10.18642,-1.22704 12.22493,-5.52288 2.06381,-4.34915 2.08615,-6.19253 0.12113,-9.99245 -1.57543,-3.04655 -4.43495,-4.71764 -13.83464,-8.08489 -7.00464,-2.50928 -10.83048,-6.14688 -11.66594,-11.09199 -1.40956,-8.34309 5.03045,-15.90118 13.55608,-15.90961 8.10769,-0.008 15.62817,5.55761 15.59413,11.54062 -0.0157,2.7644 -0.0272,2.7607 -3.44698,-1.1136 -4.22031,-4.78123 -6.9328,-6.18854 -11.92793,-6.18854 -7.58979,0 -12.5998,8.63486 -8.44865,14.56146 0.92706,1.32355 5.43008,3.75519 10.5687,5.70712 11.11284,4.22125 14.46962,7.4322 15.07153,14.41678 1.03742,12.03834 -11.73752,20.02057 -22.99193,14.36617 z m 34.4075,0.54198 c -0.29039,-0.75673 -0.39992,-13.06007 -0.2434,-27.34076 0.24381,-22.24635 0.5124,-25.96489 1.87547,-25.96489 1.34903,0 1.67154,3.50199 2.12122,23.03297 0.64885,28.18185 -0.23088,26.59356 15.14667,27.34597 8.69124,0.42525 10.83825,0.84545 10.83825,2.12122 0,1.32283 -2.46108,1.64065 -14.60511,1.88613 -11.20522,0.22651 -14.72804,-0.025 -15.1331,-1.08064 z"
         id="path3137"
         inkscape:connector-curvature="0" />
    </g>
  </g>
</svg>
